<?xml version="1.0" encoding="utf-8"?>
<svg xmlns="http://www.w3.org/2000/svg" height="100%" stroke-miterlimit="10" viewBox="0 0 40 40" width="100%" fill-rule="evenodd" stroke-linecap="round" stroke-linejoin="round" fill="#fff">
  <path d="M20 10c5.523 0 10 4.477 10 10s-4.477 10-10 10-10-4.477-10-10 4.477-10 10-10zm-6.496 5.338c-1.758 2.433-2.002 5.647-.633 8.318s4.12 4.35 7.121 4.344l.186-.009.033-.131.145-.451c.131-.431.217-.877-.007-1.248-.105-.174-.262-.301-.431-.419l-.128-.087c-.189-.127-.379-.255-.513-.434-.278-.501-.299-1.104-.056-1.623.244-.511.356-1.074.326-1.639a5.1 5.1 0 0 1-1.76-.472c-.28-.154-.528-.358-.769-.573l-.18-.162c-.381-.344-.76-.687-1.236-.863a2.1 2.1 0 0 1-.755-.333 1.37 1.37 0 0 1-.279-.445l-.917-1.993a2.65 2.65 0 0 1-.311-1.024 1.9 1.9 0 0 1 .165-.757zm6.759-3.324c.944.578 1.719 1.394 2.247 2.367-1.2.403-2.204 1.244-2.812 2.355a1.16 1.16 0 0 1-.198.396l-.065.062c-.049.044-.098.087-.123.147-.017.06-.02.122-.011.183l.024.089a17.61 17.61 0 0 0 .312 1.001l-.183.098c-.384.184-.856.285-1.086-.043-.062-.089-.097-.2-.124-.315l-.026-.115c-.05-.232-.097-.453-.309-.507a.59.59 0 0 0-.192-.001l-1.188.293a3.97 3.97 0 0 0-.069 1.851c.729-.109 1.616-.155 2.047.442.061.084.113.181.162.281l.072.152c.151.327.299.647.633.674.181-.006.357-.057.513-.149a3.29 3.29 0 0 1 3.128.27c.264.245.597.404.954.455l.073-.004c.108-.007.22-.014.293.06.057.084.086.184.082.286.067.496.614.775 1.11.851l.217.027.45.042.093.015.002-.005.902.16c.523-1.069.798-2.242.803-3.432-.007-4.309-3.423-7.839-7.729-7.986z"/>
</svg>
